
  <svg width="512" height="512" viewBox="0 0 512 512" xmlns="http://www.w3.org/2000/svg">
    <defs>
      <linearGradient id="bgGrad" x1="0%" y1="0%" x2="100%" y2="100%">
        <stop offset="0%" stop-color="#a855f7" />
        <stop offset="100%" stop-color="#7e22ce" />
      </linearGradient>
      <linearGradient id="shieldGrad" x1="0%" y1="0%" x2="0%" y2="100%">
        <stop offset="0%" stop-color="#ffffff" />
        <stop offset="100%" stop-color="#f3e8ff" />
      </linearGradient>
      <filter id="shadow" x="-10%" y="-10%" width="120%" height="120%">
        <feDropShadow dx="0" dy="12" stdDeviation="16" flood-color="#3b0764" flood-opacity="0.35" />
      </filter>
    </defs>

    <!-- Background Card -->
    <rect width="512" height="512" rx="110" fill="url(#bgGrad)" />

    <!-- Outer Decorative Ring -->
    <circle cx="256" cy="256" r="210" fill="none" stroke="#ffffff" stroke-opacity="0.2" stroke-width="8" />

    <!-- Central Emblem / Shield -->
    <g filter="url(#shadow)">
      <!-- Book / Journal Icon -->
      <path d="M 160 170 Q 256 140 352 170 L 352 350 Q 256 320 160 350 Z" fill="url(#shieldGrad)" />
      <path d="M 256 152 L 256 332" stroke="#7e22ce" stroke-width="8" stroke-linecap="round" />

      <!-- Graduation Cap / Crest -->
      <path d="M 256 110 L 330 145 L 256 180 L 182 145 Z" fill="#facc15" />
      <path d="M 315 152 L 315 185 Q 315 200 256 200 Q 197 200 197 185 L 197 152" fill="none" stroke="#eab308" stroke-width="6" />

      <!-- Badge Text -->
      <text x="256" y="270" text-anchor="middle" font-family="'Segoe UI', Roboto, Helvetica, sans-serif" font-weight="900" font-size="34" fill="#6b21a8" letter-spacing="2">SMPN 8</text>
      <text x="256" y="305" text-anchor="middle" font-family="'Segoe UI', Roboto, Helvetica, sans-serif" font-weight="800" font-size="22" fill="#9333ea" letter-spacing="3">PASURUAN</text>
    </g>

    <!-- Bottom App Title Pill -->
    <rect x="116" y="380" width="280" height="64" rx="32" fill="#ffffff" />
    <text x="256" y="423" text-anchor="middle" font-family="'Segoe UI', Roboto, Helvetica, sans-serif" font-weight="900" font-size="30" fill="#7e22ce" letter-spacing="1">SIM-PANLA</text>
  </svg>
  